<?xml version="1.0" encoding="UTF-8" standalone="no"?>
<!DOCTYPE svg PUBLIC "-//W3C//DTD SVG 1.1//EN"
 "http://www.w3.org/Graphics/SVG/1.1/DTD/svg11.dtd">
<!-- Generated by graphviz version 2.38.0 (20140413.2041)
 -->
<!-- Title: fsm Pages: 1 -->
<svg width="529pt" height="524pt"
 viewBox="0.00 0.00 529.03 524.00" xmlns="http://www.w3.org/2000/svg" xmlns:xlink="http://www.w3.org/1999/xlink">
<g id="graph0" class="graph" transform="scale(1 1) rotate(0) translate(4 520)">
<title>fsm</title>
<polygon fill="white" stroke="none" points="-4,4 -4,-520 525.027,-520 525.027,4 -4,4"/>
<!-- INIT -->
<g id="node1" class="node"><title>INIT</title>
<ellipse fill="none" stroke="black" cx="424.027" cy="-498" rx="28.6953" ry="18"/>
<text text-anchor="middle" x="424.027" y="-494.3" font-family="Times,serif" font-size="14.00">INIT</text>
</g>
<!-- PREFLIGHT -->
<g id="node2" class="node"><title>PREFLIGHT</title>
<ellipse fill="none" stroke="black" cx="283.027" cy="-411" rx="57.6901" ry="18"/>
<text text-anchor="middle" x="283.027" y="-407.3" font-family="Times,serif" font-size="14.00">PREFLIGHT</text>
</g>
<!-- INIT&#45;&gt;PREFLIGHT -->
<g id="edge1" class="edge"><title>INIT&#45;&gt;PREFLIGHT</title>
<path fill="none" stroke="black" d="M404.125,-485.002C381.618,-471.434 344.571,-449.1 317.37,-432.703"/>
<polygon fill="black" stroke="black" points="318.929,-429.556 308.558,-427.391 315.315,-435.551 318.929,-429.556"/>
<text text-anchor="middle" x="388.527" y="-450.8" font-family="Times,serif" font-size="14.00">initialized</text>
</g>
<!-- ERROR -->
<g id="node3" class="node"><title>ERROR</title>
<ellipse fill="none" stroke="black" cx="326.027" cy="-18" rx="40.0939" ry="18"/>
<text text-anchor="middle" x="326.027" y="-14.3" font-family="Times,serif" font-size="14.00">ERROR</text>
</g>
<!-- INIT&#45;&gt;ERROR -->
<g id="edge2" class="edge"><title>INIT&#45;&gt;ERROR</title>
<path fill="none" stroke="black" d="M443.899,-484.636C464.594,-470.053 494.027,-443.734 494.027,-412 494.027,-412 494.027,-412 494.027,-119 494.027,-62.635 423.338,-37.3173 373.667,-26.4848"/>
<polygon fill="black" stroke="black" points="374.229,-23.0274 363.73,-24.4468 372.823,-29.8847 374.229,-23.0274"/>
<text text-anchor="middle" x="507.527" y="-254.3" font-family="Times,serif" font-size="14.00">error</text>
</g>
<!-- PREFLIGHT&#45;&gt;ERROR -->
<g id="edge3" class="edge"><title>PREFLIGHT&#45;&gt;ERROR</title>
<path fill="none" stroke="black" d="M330.68,-400.533C376.557,-388.318 439.027,-362.116 439.027,-310 439.027,-310 439.027,-310 439.027,-119 439.027,-78.4665 397.748,-50.3999 365.089,-34.5371"/>
<polygon fill="black" stroke="black" points="366.262,-31.2233 355.717,-30.1961 363.32,-37.575 366.262,-31.2233"/>
<text text-anchor="middle" x="452.527" y="-203.3" font-family="Times,serif" font-size="14.00">error</text>
</g>
<!-- CALIBRATING -->
<g id="node4" class="node"><title>CALIBRATING</title>
<ellipse fill="none" stroke="black" cx="74.0274" cy="-309" rx="70.3881" ry="18"/>
<text text-anchor="middle" x="74.0274" y="-305.3" font-family="Times,serif" font-size="14.00">CALIBRATING</text>
</g>
<!-- PREFLIGHT&#45;&gt;CALIBRATING -->
<g id="edge5" class="edge"><title>PREFLIGHT&#45;&gt;CALIBRATING</title>
<path fill="none" stroke="black" d="M225.87,-408.212C171.495,-405.181 95.2185,-397.013 76.0274,-375 67.217,-364.894 66.15,-350.178 67.5383,-337.303"/>
<polygon fill="black" stroke="black" points="71.0528,-337.487 69.1659,-327.062 64.1395,-336.389 71.0528,-337.487"/>
<text text-anchor="middle" x="128.527" y="-363.8" font-family="Times,serif" font-size="14.00">arm requested</text>
<text text-anchor="middle" x="128.527" y="-348.8" font-family="Times,serif" font-size="14.00">&amp; calibrate on arm</text>
</g>
<!-- ARMED -->
<g id="node5" class="node"><title>ARMED</title>
<ellipse fill="none" stroke="black" cx="193.027" cy="-207" rx="42.7926" ry="18"/>
<text text-anchor="middle" x="193.027" y="-203.3" font-family="Times,serif" font-size="14.00">ARMED</text>
</g>
<!-- PREFLIGHT&#45;&gt;ARMED -->
<g id="edge9" class="edge"><title>PREFLIGHT&#45;&gt;ARMED</title>
<path fill="none" stroke="black" d="M263.06,-393.836C245.702,-378.561 221.445,-354.012 209.027,-327 195.527,-297.632 192.511,-260.184 192.231,-235.218"/>
<polygon fill="black" stroke="black" points="195.732,-235.031 192.262,-225.021 188.732,-235.01 195.732,-235.031"/>
<text text-anchor="middle" x="235.027" y="-312.8" font-family="Times,serif" font-size="14.00">arm</text>
<text text-anchor="middle" x="235.027" y="-297.8" font-family="Times,serif" font-size="14.00">requested</text>
</g>
<!-- ERROR&#45;&gt;PREFLIGHT -->
<g id="edge4" class="edge"><title>ERROR&#45;&gt;PREFLIGHT</title>
<path fill="none" stroke="black" d="M338.589,-35.3814C342.421,-41.0308 346.33,-47.5621 349.027,-54 360.447,-81.2557 363.027,-89.4486 363.027,-119 363.027,-310 363.027,-310 363.027,-310 363.027,-342.276 337.301,-370.104 315.026,-388.149"/>
<polygon fill="black" stroke="black" points="312.791,-385.453 307.03,-394.345 317.079,-390.987 312.791,-385.453"/>
<text text-anchor="middle" x="383.027" y="-210.8" font-family="Times,serif" font-size="14.00">errors</text>
<text text-anchor="middle" x="383.027" y="-195.8" font-family="Times,serif" font-size="14.00">cleared</text>
</g>
<!-- CALIBRATING&#45;&gt;PREFLIGHT -->
<g id="edge6" class="edge"><title>CALIBRATING&#45;&gt;PREFLIGHT</title>
<path fill="none" stroke="black" d="M31.0521,-323.273C21.1531,-328.437 11.8354,-335.478 6.02738,-345 -0.915922,-356.383 -2.78999,-364.998 6.02738,-375 19.7365,-390.55 138.816,-400.947 216.319,-406.134"/>
<polygon fill="black" stroke="black" points="216.286,-409.639 226.494,-406.801 216.744,-402.654 216.286,-409.639"/>
<text text-anchor="middle" x="35.0274" y="-363.8" font-family="Times,serif" font-size="14.00">calibration</text>
<text text-anchor="middle" x="35.0274" y="-348.8" font-family="Times,serif" font-size="14.00">failed</text>
</g>
<!-- CALIBRATING&#45;&gt;ERROR -->
<g id="edge7" class="edge"><title>CALIBRATING&#45;&gt;ERROR</title>
<path fill="none" stroke="black" d="M72.3315,-290.725C68.7827,-243.602 66.3227,-112.46 141.027,-54 161.653,-37.8598 228.942,-28.2121 276.396,-23.2529"/>
<polygon fill="black" stroke="black" points="276.896,-26.7203 286.495,-22.2362 276.195,-19.7555 276.896,-26.7203"/>
<text text-anchor="middle" x="95.5274" y="-159.8" font-family="Times,serif" font-size="14.00">error</text>
</g>
<!-- CALIBRATING&#45;&gt;ARMED -->
<g id="edge8" class="edge"><title>CALIBRATING&#45;&gt;ARMED</title>
<path fill="none" stroke="black" d="M83.7181,-291.056C92.5263,-276.814 106.627,-256.653 123.027,-243 131.902,-235.612 142.598,-229.272 152.929,-224.099"/>
<polygon fill="black" stroke="black" points="154.715,-227.126 162.251,-219.679 151.716,-220.8 154.715,-227.126"/>
<text text-anchor="middle" x="152.027" y="-261.8" font-family="Times,serif" font-size="14.00">calibration</text>
<text text-anchor="middle" x="152.027" y="-246.8" font-family="Times,serif" font-size="14.00">complete</text>
</g>
<!-- ARMED&#45;&gt;PREFLIGHT -->
<g id="edge10" class="edge"><title>ARMED&#45;&gt;PREFLIGHT</title>
<path fill="none" stroke="black" d="M210.146,-223.736C225.928,-239.265 248.713,-264.472 261.027,-291 274.667,-320.382 279.857,-357.538 281.828,-382.446"/>
<polygon fill="black" stroke="black" points="278.35,-382.889 282.508,-392.634 285.334,-382.422 278.35,-382.889"/>
<text text-anchor="middle" x="299.027" y="-312.8" font-family="Times,serif" font-size="14.00">disarm</text>
<text text-anchor="middle" x="299.027" y="-297.8" font-family="Times,serif" font-size="14.00">requested</text>
</g>
<!-- ARMED&#45;&gt;ERROR -->
<g id="edge11" class="edge"><title>ARMED&#45;&gt;ERROR</title>
<path fill="none" stroke="black" d="M171.872,-191.02C145.779,-170.658 107.274,-133.202 128.027,-102 161.008,-52.413 229.949,-32.3918 277.114,-24.3466"/>
<polygon fill="black" stroke="black" points="277.793,-27.7829 287.122,-22.7622 276.698,-20.869 277.793,-27.7829"/>
<text text-anchor="middle" x="175.027" y="-123.8" font-family="Times,serif" font-size="14.00">disarm requested</text>
<text text-anchor="middle" x="175.027" y="-108.8" font-family="Times,serif" font-size="14.00">&amp; error</text>
</g>
<!-- FAILSAFE -->
<g id="node6" class="node"><title>FAILSAFE</title>
<ellipse fill="none" stroke="black" cx="283.027" cy="-120" rx="51.9908" ry="18"/>
<text text-anchor="middle" x="283.027" y="-116.3" font-family="Times,serif" font-size="14.00">FAILSAFE</text>
</g>
<!-- ARMED&#45;&gt;FAILSAFE -->
<g id="edge12" class="edge"><title>ARMED&#45;&gt;FAILSAFE</title>
<path fill="none" stroke="black" d="M225.638,-195.08C238.32,-189.508 252.144,-181.619 262.027,-171 268.138,-164.434 272.609,-155.831 275.814,-147.616"/>
<polygon fill="black" stroke="black" points="279.195,-148.546 279.121,-137.951 272.572,-146.279 279.195,-148.546"/>
<text text-anchor="middle" x="293.027" y="-159.8" font-family="Times,serif" font-size="14.00">RC lost</text>
</g>
<!-- FAILSAFE&#45;&gt;ERROR -->
<g id="edge14" class="edge"><title>FAILSAFE&#45;&gt;ERROR</title>
<path fill="none" stroke="black" d="M284.449,-101.985C286.099,-88.431 289.615,-69.2646 297.027,-54 298.927,-50.0869 301.354,-46.2361 303.992,-42.6023"/>
<polygon fill="black" stroke="black" points="306.883,-44.5901 310.383,-34.5899 301.411,-40.2249 306.883,-44.5901"/>
<text text-anchor="middle" x="323.027" y="-72.8" font-family="Times,serif" font-size="14.00">disarm</text>
<text text-anchor="middle" x="323.027" y="-57.8" font-family="Times,serif" font-size="14.00">requested</text>
</g>
<!-- FAILSAFE&#45;&gt;ARMED -->
<g id="edge13" class="edge"><title>FAILSAFE&#45;&gt;ARMED</title>
<path fill="none" stroke="black" d="M242.078,-131.259C219.811,-137.755 195.51,-146.668 189.027,-156 184.467,-162.564 183.691,-170.848 184.572,-178.775"/>
<polygon fill="black" stroke="black" points="181.177,-179.658 186.505,-188.816 188.051,-178.335 181.177,-179.658"/>
<text text-anchor="middle" x="223.527" y="-159.8" font-family="Times,serif" font-size="14.00">RC regained</text>
</g>
</g>
</svg>
