<?xml version="1.0" encoding="UTF-8" standalone="no"?>
<!DOCTYPE svg PUBLIC "-//W3C//DTD SVG 1.1//EN"
 "http://www.w3.org/Graphics/SVG/1.1/DTD/svg11.dtd">
<!-- Generated by graphviz version 2.38.0 (20140413.2041)
 -->
<!-- Title: fsm Pages: 1 -->
<svg width="360pt" height="437pt"
 viewBox="0.00 0.00 359.71 437.00" xmlns="http://www.w3.org/2000/svg" xmlns:xlink="http://www.w3.org/1999/xlink">
<g id="graph0" class="graph" transform="scale(1 1) rotate(0) translate(4 433)">
<title>fsm</title>
<polygon fill="white" stroke="none" points="-4,4 -4,-433 355.715,-433 355.715,4 -4,4"/>
<!-- INIT -->
<g id="node1" class="node"><title>INIT</title>
<ellipse fill="none" stroke="black" cx="274.715" cy="-411" rx="28.6953" ry="18"/>
<text text-anchor="middle" x="274.715" y="-407.3" font-family="Times,serif" font-size="14.00">INIT</text>
</g>
<!-- PREFLIGHT -->
<g id="node2" class="node"><title>PREFLIGHT</title>
<ellipse fill="none" stroke="black" cx="195.715" cy="-324" rx="57.6901" ry="18"/>
<text text-anchor="middle" x="195.715" y="-320.3" font-family="Times,serif" font-size="14.00">PREFLIGHT</text>
</g>
<!-- INIT&#45;&gt;PREFLIGHT -->
<g id="edge1" class="edge"><title>INIT&#45;&gt;PREFLIGHT</title>
<path fill="none" stroke="black" d="M260.954,-395.194C249.058,-382.395 231.646,-363.66 217.801,-348.764"/>
<polygon fill="black" stroke="black" points="220.307,-346.318 210.935,-341.376 215.179,-351.084 220.307,-346.318"/>
<text text-anchor="middle" x="268.215" y="-363.8" font-family="Times,serif" font-size="14.00">initialized</text>
</g>
<!-- ERROR -->
<g id="node3" class="node"><title>ERROR</title>
<ellipse fill="none" stroke="black" cx="189.715" cy="-18" rx="40.0939" ry="18"/>
<text text-anchor="middle" x="189.715" y="-14.3" font-family="Times,serif" font-size="14.00">ERROR</text>
</g>
<!-- INIT&#45;&gt;ERROR -->
<g id="edge2" class="edge"><title>INIT&#45;&gt;ERROR</title>
<path fill="none" stroke="black" d="M289.716,-395.546C304.444,-379.736 324.715,-352.907 324.715,-325 324.715,-325 324.715,-325 324.715,-119 324.715,-72.6173 272.622,-45.272 233.155,-31.2103"/>
<polygon fill="black" stroke="black" points="234.027,-27.8104 223.433,-27.918 231.782,-34.4405 234.027,-27.8104"/>
<text text-anchor="middle" x="338.215" y="-218.3" font-family="Times,serif" font-size="14.00">error</text>
</g>
<!-- PREFLIGHT&#45;&gt;ERROR -->
<g id="edge3" class="edge"><title>PREFLIGHT&#45;&gt;ERROR</title>
<path fill="none" stroke="black" d="M156.363,-310.644C141.38,-304.976 124.588,-297.399 110.715,-288 58.4128,-252.565 35.4547,-244.545 11.7148,-186 -11.0504,-129.859 -0.337581,-93.3612 45.7148,-54 71.4323,-32.0192 108.723,-23.385 138.913,-20.1858"/>
<polygon fill="black" stroke="black" points="139.613,-23.6376 149.264,-19.2679 138.994,-16.665 139.613,-23.6376"/>
<text text-anchor="middle" x="25.2148" y="-167.3" font-family="Times,serif" font-size="14.00">error</text>
</g>
<!-- ARMED -->
<g id="node4" class="node"><title>ARMED</title>
<ellipse fill="none" stroke="black" cx="120.715" cy="-222" rx="42.7926" ry="18"/>
<text text-anchor="middle" x="120.715" y="-218.3" font-family="Times,serif" font-size="14.00">ARMED</text>
</g>
<!-- PREFLIGHT&#45;&gt;ARMED -->
<g id="edge5" class="edge"><title>PREFLIGHT&#45;&gt;ARMED</title>
<path fill="none" stroke="black" d="M152.234,-311.845C140.343,-306.604 128.795,-298.992 121.715,-288 114.672,-277.065 113.768,-262.803 114.902,-250.426"/>
<polygon fill="black" stroke="black" points="118.418,-250.549 116.321,-240.164 111.484,-249.591 118.418,-250.549"/>
<text text-anchor="middle" x="147.715" y="-276.8" font-family="Times,serif" font-size="14.00">arm</text>
<text text-anchor="middle" x="147.715" y="-261.8" font-family="Times,serif" font-size="14.00">requested</text>
</g>
<!-- ERROR&#45;&gt;PREFLIGHT -->
<g id="edge4" class="edge"><title>ERROR&#45;&gt;PREFLIGHT</title>
<path fill="none" stroke="black" d="M218.82,-30.6665C228.976,-36.2122 239.401,-43.8851 245.715,-54 257.072,-72.1954 249.602,-80.5801 250.715,-102 255.005,-184.598 284.024,-215.228 244.715,-288 241.85,-293.303 237.79,-297.993 233.219,-302.077"/>
<polygon fill="black" stroke="black" points="230.884,-299.46 225.164,-308.378 235.197,-304.973 230.884,-299.46"/>
<text text-anchor="middle" x="282.715" y="-174.8" font-family="Times,serif" font-size="14.00">errors</text>
<text text-anchor="middle" x="282.715" y="-159.8" font-family="Times,serif" font-size="14.00">cleared</text>
</g>
<!-- ARMED&#45;&gt;PREFLIGHT -->
<g id="edge6" class="edge"><title>ARMED&#45;&gt;PREFLIGHT</title>
<path fill="none" stroke="black" d="M147.723,-236.088C157.039,-241.727 166.848,-249.092 173.715,-258 182.182,-268.983 187.498,-283.418 190.777,-295.894"/>
<polygon fill="black" stroke="black" points="187.405,-296.846 193.078,-305.794 194.224,-295.262 187.405,-296.846"/>
<text text-anchor="middle" x="214.715" y="-276.8" font-family="Times,serif" font-size="14.00">disarm</text>
<text text-anchor="middle" x="214.715" y="-261.8" font-family="Times,serif" font-size="14.00">requested</text>
</g>
<!-- ARMED&#45;&gt;ERROR -->
<g id="edge7" class="edge"><title>ARMED&#45;&gt;ERROR</title>
<path fill="none" stroke="black" d="M97.3366,-206.895C64.4022,-185.156 10.8796,-141.801 34.7148,-102 58.2964,-62.6228 107.649,-40.8685 144.365,-29.6199"/>
<polygon fill="black" stroke="black" points="145.726,-32.8694 154.353,-26.7199 143.774,-26.147 145.726,-32.8694"/>
<text text-anchor="middle" x="81.7148" y="-123.8" font-family="Times,serif" font-size="14.00">disarm requested</text>
<text text-anchor="middle" x="81.7148" y="-108.8" font-family="Times,serif" font-size="14.00">&amp; error</text>
</g>
<!-- FAILSAFE -->
<g id="node5" class="node"><title>FAILSAFE</title>
<ellipse fill="none" stroke="black" cx="189.715" cy="-120" rx="51.9908" ry="18"/>
<text text-anchor="middle" x="189.715" y="-116.3" font-family="Times,serif" font-size="14.00">FAILSAFE</text>
</g>
<!-- ARMED&#45;&gt;FAILSAFE -->
<g id="edge8" class="edge"><title>ARMED&#45;&gt;FAILSAFE</title>
<path fill="none" stroke="black" d="M113.386,-204.17C108.515,-190.189 104.533,-170.337 113.715,-156 119.653,-146.728 128.737,-139.878 138.584,-134.829"/>
<polygon fill="black" stroke="black" points="140.099,-137.985 147.773,-130.681 137.219,-131.605 140.099,-137.985"/>
<text text-anchor="middle" x="134.715" y="-167.3" font-family="Times,serif" font-size="14.00">RC lost</text>
</g>
<!-- FAILSAFE&#45;&gt;ERROR -->
<g id="edge10" class="edge"><title>FAILSAFE&#45;&gt;ERROR</title>
<path fill="none" stroke="black" d="M189.715,-101.581C189.715,-86.3816 189.715,-64.0669 189.715,-46.4644"/>
<polygon fill="black" stroke="black" points="193.215,-46.219 189.715,-36.2191 186.215,-46.2191 193.215,-46.219"/>
<text text-anchor="middle" x="215.715" y="-72.8" font-family="Times,serif" font-size="14.00">disarm</text>
<text text-anchor="middle" x="215.715" y="-57.8" font-family="Times,serif" font-size="14.00">requested</text>
</g>
<!-- FAILSAFE&#45;&gt;ARMED -->
<g id="edge9" class="edge"><title>FAILSAFE&#45;&gt;ARMED</title>
<path fill="none" stroke="black" d="M182.626,-137.835C176.495,-151.459 166.875,-170.811 155.715,-186 152.754,-190.029 149.331,-194.035 145.809,-197.82"/>
<polygon fill="black" stroke="black" points="143.059,-195.625 138.556,-205.216 148.057,-200.527 143.059,-195.625"/>
<text text-anchor="middle" x="208.215" y="-167.3" font-family="Times,serif" font-size="14.00">RC regained</text>
</g>
</g>
</svg>
